<svg id="レイヤー_1" data-name="レイヤー 1" xmlns="http://www.w3.org/2000/svg" viewBox="0 0 1322 53"><defs><style>.cls-1{fill:#05d032;}.cls-2{fill:#d4ff00;}.cls-3{fill:#82ff00;}.cls-4{fill:#fb9500;}.cls-5{fill:#ffeb02;}.cls-6{fill:#026f8f;}.cls-7{fill:#f602fe;}.cls-8{fill:#fd0100;}.cls-9{fill:#0030c9;}.cls-10{fill:#ec03ff;}.cls-11{fill:#0002fc;}.cls-12{fill:#ac01ff;}</style></defs><polygon class="cls-1" points="667.7 0 568.8 0 543.2 53 642.2 53 667.7 0"/><polygon class="cls-2" points="446 0 347 0 321.5 53 420.4 53 446 0"/><polygon class="cls-3" points="556.8 0 457.9 0 432.4 53 531.3 53 556.8 0"/><polygon class="cls-4" points="99.7 53 198.7 53 224.2 0 125.3 0 99.7 53"/><polygon class="cls-5" points="335.1 0 236.1 0 210.6 53 309.5 53 335.1 0"/><polygon class="cls-6" points="778.6 0 679.6 0 654.1 53 753.1 53 778.6 0"/><polygon class="cls-7" points="1222.1 0 1123.2 0 1097.6 53 1196.6 53 1222.1 0"/><polygon class="cls-8" points="112.2 0 0 0 0 53 86.6 53 112.2 0"/><polygon class="cls-9" points="889.5 0 790.5 0 765 53 863.9 53 889.5 0"/><polygon class="cls-10" points="1235 0 1209.5 53 1322 53 1322 0 1235 0"/><polygon class="cls-11" points="1000.3 0 901.4 0 875.9 53 974.8 53 1000.3 0"/><polygon class="cls-12" points="1111.2 0 1012.3 0 986.8 53 1085.7 53 1111.2 0"/></svg>