<svg id="レイヤー_7" data-name="レイヤー 7" xmlns="http://www.w3.org/2000/svg" viewBox="0 0 942 1018.3"><defs><style>.cls-1{fill:#7d1b8f;}.cls-2{fill:#ebebeb;}.cls-3{fill:#00395c;}.cls-4{fill:#007599;}.cls-5{fill:#b8001c;}.cls-6{fill:#f54e67;}.cls-7{fill:#ff6b6b;}.cls-8{fill:#d10000;}.cls-9{fill:#ffe1c4;}.cls-10{fill:#50b2c9;}.cls-11{fill:#618db2;}.cls-12,.cls-18,.cls-19{fill:none;stroke:#000;stroke-miterlimit:10;}.cls-13{fill:#362e2a;}.cls-14{fill:#ffd829;}.cls-15{fill:#ffc72b;}.cls-16{fill:#1aa3ff;}.cls-17{fill:#c9eaff;}.cls-18{stroke-width:4px;}.cls-19{stroke-width:7px;}</style></defs><path class="cls-1" d="M107.2,711.8c-18.1,15.5-32.5,32.7-37.3,51.3s.6,38.4,19.1,53.6c26.2,21.7,73.2,31.1,104.8,50,27,16.2,41.2,38.5,46.4,60.9s2.2,45.2-1.1,67.7c-1.3,9-2.4,18.7,5.6,26.4s26.5,12.3,42.9,15.1c177.2,30.6,367.8,26.7,548.2,3.3,46.2-6,93.8-13.7,129.7-31.8s56.9-49.4,37.1-74.6c-15.5-19.7-50.6-31-82.5-42.1s-65.3-25.2-73-46.5,14.2-43.2,30.7-63.4c17.7-21.8,29.6-45.2,35-69.1,2-8.5,3-17.4-2.4-25.3-7.9-11.9-28.1-19.1-47.6-24.6-145.4-41.2-315.3-34-476.1-25.3C349.9,639.3,148,677,107.2,711.8Z" transform="translate(-68.2 -50.6)"/><path class="cls-1" d="M268.4,281.2" transform="translate(-68.2 -50.6)"/><polygon class="cls-2" points="330.3 669 541.2 851.2 647.9 870.8 599.9 789.1 354.6 637.1 330.3 669"/><polygon class="cls-3" points="243.8 582.5 252.7 589.9 300.4 629.2 315.5 611.9 256.3 570.3 243.8 582.5"/><polygon class="cls-4" points="269.9 653.8 298.2 714.4 391.1 600.4 330.5 575.9 269.9 653.8"/><ellipse class="cls-5" cx="391.5" cy="688.3" rx="15.7" ry="18.7" transform="translate(-171.5 19.4) rotate(-9)"/><ellipse class="cls-6" cx="384.5" cy="686.9" rx="6.2" ry="7.4" transform="translate(-171.4 18.3) rotate(-9)"/><path class="cls-7" d="M750,942.4c-62.9-48-106.6-125.5-147.7-201-5.5-10.1-11-20.3-15.7-30.9-10.9,9.7-23.6,17.4-36.7,23.8-19.5,9.4-40.4,15.8-58.8,21L449.4,911.1c-4.8,17.7-9.5,35.4-16.6,52.2-4.8,11.5-10.8,22.5-14.7,34.5-8.4,25.7-6.8,54,2.7,71.1,21-27.6,53.2-45.4,87.2-48.2,31.4-2.5,62.7,7.2,94.1,11.3,66.5,8.9,140-11.3,178.6-69a12.1,12.1,0,0,0-.5-1.4A182.9,182.9,0,0,1,750,942.4Z" transform="translate(-68.2 -50.6)"/><path class="cls-8" d="M750,942.4a182.9,182.9,0,0,0,30.2,19.2C745.4,869.1,679,793.2,614.8,719.5a53.5,53.5,0,0,0-20.6-16.3c-2.4,2.5-5,5-7.6,7.3,4.7,10.6,10.2,20.8,15.7,30.9C643.4,816.9,687.1,894.4,750,942.4Z" transform="translate(-68.2 -50.6)"/><path class="cls-9" d="M446.6,871.1l-21.8,157a56,56,0,0,1,24.7,7.6c16-51.9,22.1-108.5,17.6-164.1C460.1,871.5,453.1,871.5,446.6,871.1Z" transform="translate(-68.2 -50.6)"/><path class="cls-10" d="M452.1,732c-13.8,46.3-4.5,99.4-17,146.3a337.7,337.7,0,0,1,37.9,9.3c1.4-33.3-6.3-67.1-1.9-99.9C472.6,776.5,475.4,764.4,452.1,732Z" transform="translate(-68.2 -50.6)"/><path class="cls-9" d="M615.2,646.2a260.6,260.6,0,0,0-6.2,57.9c-3.6-.8-6.9,2.3-9.7,5.1-16.4,16.8-35.7,32-57.3,33.3-7.3.5-15.5-1.3-19.9-8.2-2.7-4.3-3.6-9.8-4.5-15.1A186.1,186.1,0,0,0,498,663.4" transform="translate(-68.2 -50.6)"/><path class="cls-11" d="M504.3,724a294,294,0,0,0,40.6,5.8c11.7.8,23.5.8,34.9-2.1s22.5-9.1,30.7-19.3c-8.6,17.3-20.5,32.7-35.6,41s-33.7,8.6-47.8-2.1C518.6,740.9,512.3,731.1,504.3,724Z" transform="translate(-68.2 -50.6)"/><path class="cls-10" d="M463.3,817.8l-11.2,97.3c-4.6,41.1-9.4,82.4-22.7,122.1,73.1,27.4,156.6,22.1,235.5,12.7a704.7,704.7,0,0,0-22.1-176.1c-.7-2.7-1.5-5.5-.9-8.2s2.8-5.6,4.9-8.1a211.8,211.8,0,0,0,33.6-57.3c3.3-8.5,6-17.3,5.3-26.2-1.9-22.6-24.7-39-45.6-52.6l-28.9-18.7c-2.3,10.5-12.1,18.4-21.4,25.5-6.5,5-13.2,10-21.4,12.5-13.8,4.1-29.6-.1-41.2-8S507.5,714,501.4,703c-11.6,2.2-23.6,4.5-33,10.8-11.8,7.8-17.7,20.8-18.9,33.6s1.8,25.6,4.7,38.1C456.6,796,464.6,805.9,463.3,817.8Z" transform="translate(-68.2 -50.6)"/><path class="cls-8" d="M496.8,708.4c.5,8.4,1.4,17.8,6.7,23.5s10.5,5.7,16.2,6.3c17.6,2.1,35.5,3.6,52.4-1.1s33.2-16.6,41.1-34.9c-1.9-6.7-8.9-8.6-14.7-9.2a271.2,271.2,0,0,0-85.3,4.5C506.8,698.9,499.4,701.6,496.8,708.4Z" transform="translate(-68.2 -50.6)"/><path class="cls-12" d="M385.9,828.1" transform="translate(-68.2 -50.6)"/><path class="cls-13" d="M670.1,515.2a667.2,667.2,0,0,0-16-208.2,208,208,0,0,0-21.6,47.7c-2.5-8.4-7.8-15.4-12.9-22.1-20.4-26.5-42.5-54.2-70.9-64.6-3.1,18.8-3.7,38.2-.6,56.6-51.7-35.3-132.7-41.8-222.3-31.2,37.8,39.1,16.6,22.3,76,59.9-35.5,18.1-104.2,59.2-132.3,69.4C321.1,468,360,515.8,369.8,576.5A524.6,524.6,0,0,0,523,603.1c30.4.7,61.4-1.6,89-14.9S667.3,549.4,670.1,515.2Z" transform="translate(-68.2 -50.6)"/><path class="cls-9" d="M670.5,574.4c14.5-2.9,26.5-15.2,32.2-30.4s5.6-32.8,1.5-49c-1.2-4.9-2.8-9.8-5.9-13.6-6.4-7.9-17.7-8.5-25.9-3.7s-13.7,14-17.6,23.5a119.2,119.2,0,0,0-8.3,33.1c-8.6-12.8-11.8-27.6-14.8-42.2L620.8,440q-7.6,18.2-15.6,36a289.8,289.8,0,0,1-13.1-43.1c-8.6,11.4-17.5,23.5-27.5,34.2a196.6,196.6,0,0,1-36.3-61.6c-20,28.9-39,58.8-57.2,89.3a376.7,376.7,0,0,1-35.7-72.9c-13,35.5-29.3,68.8-50.5,97.6a62,62,0,0,1-15.7-29q4.4,71.3,11.2,142.4c1.2,13.4,2.8,27.6,10,38.5,11.7,17.8,33.6,21,52.9,22.5,51.2,4,102.9,7.4,153.1-2.3,9.7-1.9,19.5-4.3,27.7-10.3,6.6-4.8,11.8-11.7,16.4-18.9C656.4,637.7,666.7,608.3,670.5,574.4Z" transform="translate(-68.2 -50.6)"/><path class="cls-14" d="M612.4,431.9C596.8,417,576.1,408.3,555,404s-42.9-4.3-64.5-3.7-44.8,1.7-66.5,7.3-42.7,15.7-59.3,33.8c9-30.4,35.1-53.8,64.7-64.8s62.6-10.7,93.8-5.2c28,5,56.2,14.7,77.1,34C608.2,412.6,615.2,421.9,612.4,431.9Z" transform="translate(-68.2 -50.6)"/><circle class="cls-15" cx="406.4" cy="326.6" r="34"/><ellipse class="cls-16" cx="472.8" cy="376.9" rx="27.2" ry="25.6" transform="translate(-27.8 749) rotate(-82.9)"/><ellipse class="cls-17" cx="466.1" cy="368.5" rx="9.5" ry="10.8" transform="translate(-25.3 734.9) rotate(-82.9)"/><path class="cls-18" d="M455.8,638.4c19.4-5,41-9.2,59.4,2.3,4.9,3.1,9.4,7.2,14.3,10.5" transform="translate(-68.2 -50.6)"/><path d="M400.9,531.4a59.3,59.3,0,0,0,1.5,20c3.9,16.2,12.6,27.8,19.5,26s9.3-16.6,5.4-32.8a59.2,59.2,0,0,0-2.8-9A107.4,107.4,0,0,1,400.9,531.4Z" transform="translate(-68.2 -50.6)"/><path d="M513.7,545.3a198.9,198.9,0,0,1,53.5-18.6l.9,13.7c-3.5-1.3-7.2-.7-10.7-.1q-20.9,3.6-41.4,8.4C515.4,547.7,514.7,546.7,513.7,545.3Z" transform="translate(-68.2 -50.6)"/><path class="cls-19" d="M383.3,510.9c8.2,6.7,16.6,13.5,25.9,17.7s19.7,5.5,28.4,1.3" transform="translate(-68.2 -50.6)"/><path class="cls-19" d="M507,507.7c3.8,4.1,9.5,5.2,14.6,4.4s9.8-3.5,14.4-6c9.7-5.5,19.5-11,27.8-18.8" transform="translate(-68.2 -50.6)"/><path class="cls-9" d="M596.9,876.7c-14.1-15.8-28-31.7-39.4-48.4s-20.1-34.1-28.9-51.4l-12.2-24.3-16.5-32.8c-1.1-2.2-2.2-4.5-1.8-6.8s3.4-5,6.2-7l24.1-17.5c2.6-1.9,5.4-4.1,5.4-6.8,0-4.2-7.1-7.4-13-7.2s-11,2.8-15.6,5.3l-27.3,14.8c-9.8,1.2-19.9-2.8-28.8-6.6s-18.9-8-28.8-6.9-16.9,10.4-9.3,15.6c-8.3,2.1-13.2,9-10.9,15.3-10.7.3-13.1,11.2-7.4,17.9,1.7,1.9,3.8,3.9,4,6.1s-1.2,3.4-1.9,5.1c-4.5,10.2,10.5,20.6,25.3,24.7s31.4,5.2,43.8,12.4c9.7,5.6,15.1,13.9,20.2,21.9,23.3,37.2,46.7,74.3,66.9,112.2,5,9.3,9.9,18.8,18.6,26.8s22.2,14.2,35.9,13.8c7.6-.3,14.8-2.6,19.7-6.5,11.1-8.6,9.3-22.4,3.7-34.1C622.4,898.5,607,888,596.9,876.7Z" transform="translate(-68.2 -50.6)"/><path class="cls-10" d="M521,882.2a410.8,410.8,0,0,1,83.4-21.1c2.6,10.1,12.5,18.7,21,27.4a188.2,188.2,0,0,1,21.4,25.7c6.2,9,11.4,18.6,11.4,28.3s-6.3,19.5-18.4,23.6c-9.5,3.3-21.4,2.5-31.8-.4s-19.6-7.8-28.4-12.9c-12.7-7.3-25.1-15.4-32.8-25.5C535.6,912.5,535.4,894.8,521,882.2Z" transform="translate(-68.2 -50.6)"/><path class="cls-8" d="M82.4,530.2a303.5,303.5,0,0,0,8.7,58.7,207.9,207.9,0,0,0,53.9-2.3,74.5,74.5,0,0,1-1.4-24.5c-7.7,4.1-17.6,3.7-23.9-1.1a18.1,18.1,0,0,1-5.7-21.2,500.2,500.2,0,0,1,43.2-27.5L185.1,538l-20.7,27.9,12.9,28.3,24.1-11.5a83,83,0,0,1-13-30.2l25.9-16.3-20-52c-1-2.7-2.1-5.4-4.3-7.3s-5.9-2.9-9.3-3.5c-8.7-1.6-17.4-2.8-26.3-3.7-3.4-.4-6.9-.7-10.2.3s-7.4,3.9-10.5,6.6C114.2,493.4,96.2,511.8,82.4,530.2Z" transform="translate(-68.2 -50.6)"/><path class="cls-8" d="M219.4,622.5" transform="translate(-68.2 -50.6)"/><path class="cls-8" d="M188.2,620l18.1,13.8c3.2-8.7,12.1-15.7,21.7-17.1a35.2,35.2,0,0,1-5.2-24.2L187.5,606C187.1,611,186.7,615.9,188.2,620Z" transform="translate(-68.2 -50.6)"/><path class="cls-8" d="M865.8,466.5a122.8,122.8,0,0,0-63.9,4.3l-17.6,60.1A183.8,183.8,0,0,1,807,543.1a155.2,155.2,0,0,1,8.9-32c.9-2.3,2-4.8,4.2-6s4.5-.8,6.8-.6c10.1,1.3,20.2,3.1,30.1,5.4l-1.5,61.7L823,563c-3.6-.9-7.4-1.9-11-.7a19.8,19.8,0,0,0-5.8,3.3c-6.4,4.9-12.9,9.7-19.4,14.5A27.8,27.8,0,0,1,800,596.2a48.2,48.2,0,0,1,23.6-17.6,213.4,213.4,0,0,1,34.6,26.8A119.1,119.1,0,0,1,906.7,568a309.7,309.7,0,0,1,10.6-58.9C898.3,497,879.9,483.9,865.8,466.5Z" transform="translate(-68.2 -50.6)"/><path class="cls-8" d="M764.8,593.3,756.5,607a26.6,26.6,0,0,1,16.9,14.7,65.6,65.6,0,0,1,15.5-10.1l-10.8-21C772.4,592,766.6,592.7,764.8,593.3Z" transform="translate(-68.2 -50.6)"/><path class="cls-8" d="M437.4,50.6a608.1,608.1,0,0,0-61.9,27.2l19,57.8,22-3.2-8-33.6,30-15.9a477.2,477.2,0,0,0,53,41l-19.8,35.5a143,143,0,0,0-67.7-7.1,199.4,199.4,0,0,0-2.1,32.8c.1,1.9.2,4,1.4,5.5s3.4,2.4,5.4,3l23.5,6.8a66.2,66.2,0,0,1,8.2-23.7L486,190.4a141.5,141.5,0,0,1,48.6-54.9A451.2,451.2,0,0,0,486,54.7C468.1,53.7,450.1,52.8,437.4,50.6Z" transform="translate(-68.2 -50.6)"/><path class="cls-8" d="M389.5,221.5c0,7.8,4.5,17.5,8.6,18.3l20.3,3.7,11-15.6c-4.5-5.8-9.4-11.9-16.3-14.3S395.4,214.1,389.5,221.5Z" transform="translate(-68.2 -50.6)"/><path d="M696.4,309.7l44.9-14.8a281.5,281.5,0,0,0,37.6,50.6,171.4,171.4,0,0,0-31.4,18,778.9,778.9,0,0,1-54.2-104.6,638.5,638.5,0,0,1,65.5-55.3c39.9,8.4,79.5,18.5,118.5,30.2q-7,32.6-10.9,65.6L740.8,265.2c-4-1-8.1-2.2-11.3-4.9s-5-6.7-6.6-10.6q-13.6-31.9-25.5-64.5A693.7,693.7,0,0,1,784.2,135L795,153.5a255.3,255.3,0,0,0-74.9,34.6l16.8,40.2c2.2,5.3,4.5,10.8,8.6,14.8s12.5,7.6,19.5,9.8l76.8,23.6a65.1,65.1,0,0,1,6.4-29.5l-62-12.6c-7.2-1.4-14.9-2.8-21.7-.3-4.3,1.7-7.9,4.7-11.4,7.7l-32.6,28.1L751,341.8a15.5,15.5,0,0,1,5-3.8,86,86,0,0,0-9.5-18.3,264.2,264.2,0,0,0-39.5,8.4,296,296,0,0,0-1.8,29.8,77.6,77.6,0,0,0-7,6.8S694.7,327.9,696.4,309.7Z" transform="translate(-68.2 -50.6)"/></svg>