<svg id="レイヤー_6" data-name="レイヤー 6" xmlns="http://www.w3.org/2000/svg" viewBox="0 0 753.9 1024.1"><defs><style>.cls-1{fill:#7d1b8f;}.cls-2{fill:#ebebeb;}.cls-3{fill:#00395c;}.cls-4{fill:#007599;}.cls-5{fill:#b8001c;}.cls-6{fill:#f54e67;}.cls-7{fill:#ff6b6b;}.cls-8{fill:#d10000;}.cls-9{fill:#ffe1c4;}.cls-10{fill:#50b2c9;}.cls-11{fill:#618db2;}.cls-12,.cls-14,.cls-15{fill:none;stroke:#000;stroke-miterlimit:10;}.cls-13{fill:#362e2a;}.cls-14{stroke-width:4px;}.cls-15{stroke-width:7px;}.cls-16{fill:#ffd829;}.cls-17{fill:#ffc72b;}.cls-18{fill:#1aa3ff;}.cls-19{fill:#c9eaff;}</style></defs><path class="cls-1" d="M257,691.1c-21.9,6.5-43.3,16.9-58.7,33.8s-23.9,41.1-17.9,63.2,24.5,37.9,40.8,54,31.9,36.5,29.6,59.3-20.4,38.4-36.7,53.5-32.9,34-30.8,56c1.6,16.1,13.5,29.7,27.7,37.4s30.4,10.2,46.5,12c63.1,6.9,126.8,2.6,190.1-1.8l151.2-10.4c75.9-5.2,153.3-10.8,223.6-39.7,16.8-6.9,33.5-15.4,45.6-29s18.6-33.2,12.7-50.4c-7.2-20.6-29.5-31.9-41.4-50.1-13.4-20.5-12.1-47.6-4.4-70.8S856,764,866.3,741.8c5.3-11.6,9.9-24.7,6-36.8-6.2-19.4-29.9-26.2-50.1-28.8-54.8-7-110.2-5.4-165.3-3.7l-332,10C302.8,683.1,279.9,684.3,257,691.1Z" transform="translate(-148.2 -39.9)"/><polygon class="cls-2" points="260.1 663 440.5 875.5 542.9 911.2 508.1 823.1 289 635.3 260.1 663"/><polygon class="cls-3" points="187.9 564.3 195.6 572.9 236.6 619.1 254.2 604.3 202.1 554.1 187.9 564.3"/><polygon class="cls-4" points="202.8 638.7 221.3 702.9 330.7 604.6 274.6 571 202.8 638.7"/><ellipse class="cls-5" cx="406.2" cy="670.9" rx="15.7" ry="18.7" transform="translate(-150.6 -38.4) rotate(-0.2)"/><ellipse class="cls-6" cx="399.5" cy="668.4" rx="6.2" ry="7.4" transform="translate(-150.6 -38.5) rotate(-0.2)"/><path class="cls-7" d="M744.1,956.8c-57.9-54-93.7-135.4-127.3-214.6-4.4-10.5-8.9-21.2-12.5-32.2-11.9,8.6-25.2,15-38.9,20-20.3,7.4-41.8,11.8-60.6,15.1q-28.4,75.4-56.8,151c-6.4,17.1-12.9,34.3-21.6,50.3-6,11-13,21.4-18,32.9-10.9,24.8-12.1,53.1-4.3,71.1,23.6-25.4,57.4-40,91.5-39.4,31.5.5,61.7,13.2,92.5,20.5,65.3,15.3,140.5,2.4,184.6-51.2a7.4,7.4,0,0,1-.4-1.4A190.4,190.4,0,0,1,744.1,956.8Z" transform="translate(-148.2 -39.9)"/><path class="cls-8" d="M744.1,956.8a190.4,190.4,0,0,0,28.2,22.1c-25.6-95.6-84.2-177.5-140.9-257.3a54.7,54.7,0,0,0-18.9-18.2c-2.6,2.3-5.4,4.5-8.2,6.6,3.6,11,8.1,21.7,12.5,32.2C650.4,821.4,686.2,902.8,744.1,956.8Z" transform="translate(-148.2 -39.9)"/><path class="cls-9" d="M439.6,873l-30.1,155.7a55.9,55.9,0,0,1,24.3,8.8c18.7-51,27.7-107.2,26.2-162.9C453,874.1,446,873.7,439.6,873Z" transform="translate(-148.2 -39.9)"/><path class="cls-10" d="M452.4,734.4c-16.2,45.5-9.8,99-24.7,145.2A332.8,332.8,0,0,1,465,890.9c3.2-33.2-2.7-67.3,3.4-99.9C470.5,779.9,473.9,768,452.4,734.4Z" transform="translate(-148.2 -39.9)"/><path class="cls-9" d="M615.2,646.2a260.6,260.6,0,0,0-6.2,57.9c-3.6-.8-6.9,2.3-9.7,5.1-16.4,16.8-35.7,32-57.3,33.3-7.3.5-15.5-1.3-19.9-8.2-2.7-4.3-3.6-9.8-4.5-15.1A186.1,186.1,0,0,0,498,663.4" transform="translate(-148.2 -39.9)"/><path class="cls-11" d="M504.3,724a294,294,0,0,0,40.6,5.8c11.7.8,23.5.8,34.9-2.1s22.5-9.1,30.7-19.3c-8.6,17.3-20.5,32.7-35.6,41s-33.7,8.6-47.8-2.1C518.6,740.9,512.3,731.1,504.3,724Z" transform="translate(-148.2 -39.9)"/><path class="cls-10" d="M463.3,817.8l-11.2,97.3c-4.6,41.1-9.4,82.4-22.7,122.1,73.1,27.4,156.6,22.1,235.5,12.7a704.7,704.7,0,0,0-22.1-176.1c-.7-2.7-1.5-5.5-.9-8.2s2.8-5.6,4.9-8.1a211.8,211.8,0,0,0,33.6-57.3c3.3-8.5,6-17.3,5.3-26.2-1.9-22.6-24.7-39-45.6-52.6l-28.9-18.7c-2.3,10.5-12.1,18.4-21.4,25.5-6.5,5-13.2,10-21.4,12.5-13.8,4.1-29.6-.1-41.2-8S507.5,714,501.4,703c-11.6,2.2-23.6,4.5-33,10.8-11.8,7.8-17.7,20.8-18.9,33.6s1.8,25.6,4.7,38.1C456.6,796,464.6,805.9,463.3,817.8Z" transform="translate(-148.2 -39.9)"/><path class="cls-8" d="M498,693.9c-.4,8.5-.6,17.9,4,24.2s9.8,6.8,15.4,8.1c17.2,4,34.8,7.6,52.2,4.9s34.8-12.7,44.8-30c-1.1-6.9-7.9-9.6-13.6-10.9a275,275,0,0,0-85.3-5.2C509,685.6,501.4,687.5,498,693.9Z" transform="translate(-148.2 -39.9)"/><path class="cls-12" d="M385.9,828.1" transform="translate(-148.2 -39.9)"/><path class="cls-13" d="M667.1,559.8a668.9,668.9,0,0,0,46.2-203.7,207.8,207.8,0,0,0-34.8,39.2c.2-8.8-2.8-17-5.8-25-11.6-31.2-24.5-64.2-48.6-82.6-8.5,17.1-14.8,35.5-17.3,53.9-39-49-114.4-79.1-203.1-95.4,24.5,48.5,9.2,26.2,54.8,79.6-39.2,6.8-117,25.8-146.8,27.3,35.9,58.5,58.9,115.7,50.4,176.6a526.8,526.8,0,0,0,138.5,70.6c28.9,9.6,59.2,16.6,89.5,12S654.4,591.6,667.1,559.8Z" transform="translate(-148.2 -39.9)"/><path class="cls-9" d="M655.4,610.1c14.6,1.9,29.9-6.1,40.1-18.7s15.6-29.4,16.8-46.1c.4-5,.4-10.2-1.3-14.7-3.6-9.6-14.2-13.7-23.5-11.7s-17.4,9-24.1,16.8a119.7,119.7,0,0,0-18.2,28.9c-4.2-14.9-2.5-30-.9-44.7l6.1-53c-8.7,9.9-17.4,19.6-26.1,29.3a283.8,283.8,0,0,1,1.1-45.1c-11.8,8.2-24,16.9-36.9,23.8a195.2,195.2,0,0,1-15.1-69.8q-42,31.8-82.4,66.8a376.5,376.5,0,0,1-10.9-80.4c-23.6,29.6-49.5,56.1-78.6,76.8a61.3,61.3,0,0,1-5.9-32.5q-18.2,69.1-34.1,138.7c-3,13.2-5.9,27.1-2.5,39.8,5.5,20.5,25.3,30.4,43.1,37.9,47.3,19.9,95.4,39.4,146.1,45.9,9.8,1.3,19.9,2.1,29.5-1,7.8-2.6,14.9-7.5,21.5-12.9C622.1,665.8,641.1,641.1,655.4,610.1Z" transform="translate(-148.2 -39.9)"/><path class="cls-14" d="M431.5,603.4c19.9,1.4,41.7,4.2,55.6,20.8,3.7,4.6,6.7,9.9,10.3,14.6" transform="translate(-148.2 -39.9)"/><path d="M412.9,484.6a58.7,58.7,0,0,0-4.8,19.5c-1.5,16.6,3.1,30.4,10.3,30.7s14-12.7,15.4-29.4a58.5,58.5,0,0,0,.2-9.3A108,108,0,0,1,412.9,484.6Z" transform="translate(-148.2 -39.9)"/><path d="M515.6,533.3a199.7,199.7,0,0,1,56.7-.9l-3.5,13.2c-2.9-2.2-6.6-2.9-10.1-3.4-13.9-2-27.9-3.7-41.9-5A39.3,39.3,0,0,0,515.6,533.3Z" transform="translate(-148.2 -39.9)"/><path class="cls-15" d="M402.6,459.6c5.7,9,11.6,18,19.1,24.9s16.9,11.5,26.5,10.2" transform="translate(-148.2 -39.9)"/><path class="cls-15" d="M521.1,495.4c2.3,5.1,7.4,8,12.5,8.8s10.3-.2,15.5-1.2c10.9-2.1,21.9-4.3,32.3-9.1" transform="translate(-148.2 -39.9)"/><path class="cls-9" d="M576.7,875.8c-11.4-17.9-22.6-35.8-31.2-54.2s-14.4-36.8-20.2-55.3l-8.2-26c-3.7-11.6-7.3-23.3-11-35-.8-2.3-1.5-4.8-.7-6.9s4.2-4.5,7.2-6L539.2,679c2.9-1.4,6-3.1,6.4-5.8.7-4.2-5.7-8.5-11.7-9.2s-11.2,1-16.2,2.7L488.4,677c-9.9-.4-19.2-6-27.3-11.2s-17.4-10.9-27.4-11.4S415.4,662,422,668.3c-8.5.8-14.5,6.7-13.2,13.3-10.6-1.3-14.7,9-10.1,16.5,1.3,2.2,3.1,4.5,2.9,6.6s-1.7,3.3-2.7,4.8c-6.1,9.3,7.1,22.1,21,28.5s30.2,10.2,41.3,19.2c8.7,7.1,12.7,16.2,16.4,24.9,17.1,40.4,34.2,80.8,48.1,121.5,3.4,9.9,6.7,20.1,14.1,29.4s19.6,17.6,33.2,19.3c7.5,1,15-.2,20.5-3.2,12.2-6.7,12.7-20.6,9.1-33C598.3,901.3,584.9,888.6,576.7,875.8Z" transform="translate(-148.2 -39.9)"/><path class="cls-10" d="M500.9,869a413.7,413.7,0,0,1,85.7-7.4c1,10.4,9.3,20.5,16.4,30.4a193.2,193.2,0,0,1,16.9,28.8c4.7,9.9,8.3,20.2,6.7,29.8s-9.3,18.2-21.9,20.3c-9.9,1.7-21.6-1-31.4-5.5s-18-10.9-25.9-17.3c-11.3-9.2-22.3-19.2-28.3-30.4C510.4,901.3,513.1,883.8,500.9,869Z" transform="translate(-148.2 -39.9)"/><path class="cls-8" d="M188,461.7a302.2,302.2,0,0,0-39.8,44.1,204,204,0,0,0,36.1,40,74.9,74.9,0,0,1,18-16.6c-8-3.3-14-11.3-14.4-19.2a18.4,18.4,0,0,1,12.8-17.9c16.4,4.5,32.7,9.8,48.7,15.9l-2.1,37.8-34.7,1.8-13.6,28,24.2,11.3a81.9,81.9,0,0,1,15-29.2l29.1,9.5,27.4-48.5c1.4-2.5,2.8-5.1,2.9-8s-1.6-6.4-3.3-9.3c-4.2-7.7-8.9-15.3-13.8-22.7-1.9-2.8-3.9-5.7-6.8-7.7s-7.6-3.2-11.7-3.9C236.6,462.7,210.9,460.6,188,461.7Z" transform="translate(-148.2 -39.9)"/><path class="cls-8" d="M204,626.1" transform="translate(-148.2 -39.9)"/><path class="cls-8" d="M186,600.4l.9,22.8c8.7-3.1,19.8-.7,27,5.8a35.1,35.1,0,0,1,15.4-19.4L196.4,591C192.3,593.8,188.2,596.7,186,600.4Z" transform="translate(-148.2 -39.9)"/><path class="cls-8" d="M821.3,448.9a122.7,122.7,0,0,0-60.1,21.8l-.4,62.6a181,181,0,0,1,25.3,5.5,153.6,153.6,0,0,1-.3-33.2c.2-2.5.6-5.2,2.4-6.9s4.1-2.1,6.3-2.5a282.2,282.2,0,0,1,30.4-3.2c5.2,19.9,10.5,39.8,15.7,59.8l-33.6.7c-3.7.1-7.7.2-10.8,2.3a17.5,17.5,0,0,0-4.6,4.8l-14.7,19.3a28,28,0,0,1,17.2,11.8,48.5,48.5,0,0,1,17.7-23.4,210.6,210.6,0,0,1,40.7,16.2,121,121,0,0,1,36.2-49.4,313.5,313.5,0,0,1-6-59.5C861.1,469.1,839.7,461.7,821.3,448.9Z" transform="translate(-148.2 -39.9)"/><path class="cls-8" d="M759.5,598.7l-4.3,15.4a27.1,27.1,0,0,1,20.4,9.4,66.4,66.4,0,0,1,12.1-13.9l-16.2-17.2C766.4,595.3,760.9,597.6,759.5,598.7Z" transform="translate(-148.2 -39.9)"/><path class="cls-8" d="M333.3,64.1a599.2,599.2,0,0,0-35.5,57.7l48.5,36.7,16.3-15.2-25.7-23,15.6-30.2a483.1,483.1,0,0,0,66.9,3.6l3.9,40.4a143.5,143.5,0,0,0-59.7,32.7,187.6,187.6,0,0,0,17,28.1c1.1,1.6,2.4,3.2,4.3,3.8s4.1,0,6-.6l23.3-7.8a65.9,65.9,0,0,1-6.8-24.2l45.3-14.6a140.4,140.4,0,0,1,8.9-72.8,461.4,461.4,0,0,0-86-38.8C360.3,49.3,345,58.7,333.3,64.1Z" transform="translate(-148.2 -39.9)"/><path class="cls-8" d="M391.1,231.9c4.4,6.4,13.7,11.9,17.4,10.2l18.8-8.5.2-19.1c-7-2.2-14.4-4.5-21.5-2.5S391.7,222.5,391.1,231.9Z" transform="translate(-148.2 -39.9)"/><path d="M699.4,329.9l10.2-36.6a6.5,6.5,0,0,1,1.6-3.2,7.1,7.1,0,0,1,4.1-1.2,267.6,267.6,0,0,1,41,.7c2.3.2,4.8.5,6.8,1.8a17.2,17.2,0,0,1,4.1,4.4,219.9,219.9,0,0,1,21,39.5,303.2,303.2,0,0,1-52.8,7.9c-3-29.2-7.3-58.3-12.9-86.1a858.9,858.9,0,0,1,78.3-39.8c26,24.9,61.6,37.4,89.2,60.4a5.3,5.3,0,0,1,2.4,3.5,4.9,4.9,0,0,1-1.3,2.8c-12.7,17.7-26.2,34.9-40.3,51.4l-99-85.7a7.8,7.8,0,0,1-2.5-2.9c-.8-1.7-.5-3.6-.2-5.4,3.6-21,7.3-41.9,10.9-62.8a423.9,423.9,0,0,1,142.1,4.9,124.7,124.7,0,0,1-3.9,25.8c-36.9-12.1-76.2-24.5-113.9-15.1l-5.6,30.7c-.4,2.3-.8,4.7,0,6.9a12.7,12.7,0,0,0,4.2,5c21.4,18.5,44,36.2,60.5,59.2a68.5,68.5,0,0,1,14.4-12.5c-7.6-8.9-17.5-15.3-27.4-21.7l-24-15.4L750,270a9.2,9.2,0,0,0-3.4,2.1c-1.1,1.3-1.3,3.2-1.4,4.9a213.1,213.1,0,0,0,.5,43l17.6-.6a25.4,25.4,0,0,1-3-17.5l-33.2.3a6.5,6.5,0,0,0-3.4.6c-1.4.7-2.1,2.3-2.7,3.8a146,146,0,0,1-14.8,27.2C703.7,333,701.2,332.2,699.4,329.9Z" transform="translate(-148.2 -39.9)"/><path class="cls-16" d="M642.2,448.3c-11.7-18-29.9-31.2-49.5-40.2s-40.8-14-61.9-18.4-44.1-8.5-66.4-8.1-45.1,5.6-65.5,19.4c15.7-27.5,46.4-44.3,77.9-48.2s63.3,3.8,92.4,16.3c26.2,11.3,51.3,27.1,67.4,50.7C642.5,428.6,647.3,439.3,642.2,448.3Z" transform="translate(-148.2 -39.9)"/><circle class="cls-17" cx="372.4" cy="323.7" r="34"/><ellipse class="cls-18" cx="518.9" cy="363" rx="27.2" ry="25.6" transform="translate(-149.8 683.9) rotate(-69.7)"/><ellipse class="cls-19" cx="514.3" cy="353.2" rx="9.5" ry="10.8" transform="translate(-143.6 673.2) rotate(-69.7)"/><path class="cls-1" d="M955.2-205.9" transform="translate(-148.2 -39.9)"/></svg>